<?xml version="1.0" ?><svg height="24px" version="1.1" viewBox="0 0 24 24" width="24px" xmlns="http://www.w3.org/2000/svg" xmlns:sketch="http://www.bohemiancoding.com/sketch/ns" xmlns:xlink="http://www.w3.org/1999/xlink"><title/><desc/><defs/><g fill="none" fill-rule="evenodd" id="miu" stroke="none" stroke-width="1"><g id="Artboard-1" transform="translate(-323.000000, -227.000000)"><g id="slice" transform="translate(215.000000, 119.000000)"/><path d="M337.354176,249 L328.206336,249 C328.091899,249 328,248.905922 328,248.789871 L328,230.210129 C328,230.093268 328.09238,230 328.206336,230 L342.793664,230 C342.908101,230 343,230.094078 343,230.210129 L343,243.354176 C342.478897,242.76377 341.786224,242.328378 341,242.126017 L341,242 L330,242 L330,243 L337.354176,243 C336.76377,243.521103 336.328378,244.213776 336.126017,245 L330,245 L330,246 L336,246 C336,247.194693 336.523755,248.267056 337.354176,249 L337.354176,249 Z M330,233 L330,234 L341,234 L341,233 L330,233 Z M330,236 L330,237 L341,237 L341,236 L330,236 Z M330,239 L330,240 L341,240 L341,239 L330,239 Z M339,245 L339,243 L341,243 L341,245 L343,245 L343,247 L341,247 L341,249 L339,249 L339,247 L337,247 L337,245 L339,245 Z" fill="#8BC34A" id="editor-document-file-add-glyph"/></g></g></svg>