<?xml version="1.0" encoding="utf-8"?>
<!-- Generator: Adobe Illustrator 19.0.0, SVG Export Plug-In . SVG Version: 6.00 Build 0)  -->
<svg version="1.1" id="Layer_1" xmlns="http://www.w3.org/2000/svg" xmlns:xlink="http://www.w3.org/1999/xlink" x="0px" y="0px"
	 viewBox="-88 89 24 24" style="enable-background:new -88 89 24 24;" xml:space="preserve">
<style type="text/css">
	.st0{fill:#1AB394;}
</style>
<path class="st0" d="M-64.3,96.6l-7.3-7.3c-0.4-0.4-1.1-0.4-1.5,0l-14.5,14.6c-0.4,0.4-0.4,1.1,0,1.5l7.3,7.3c0.3,0.3,1,0.3,1.4-0.1
	L-64.3,98C-63.9,97.6-63.9,97-64.3,96.6z M-79.6,110.4l-5.8-5.8l0.7-0.7l5.8,5.8L-79.6,110.4z M-78.2,109l-5.8-5.9l0.7-0.7l5.8,5.8
	L-78.2,109z M-76.7,107.5l-5.8-5.8l0.7-0.7l5.8,5.8L-76.7,107.5z M-75.3,106l-5.8-5.8l0.7-0.7l5.8,5.8L-75.3,106z M-73.8,104.6
	l-5.8-5.8l7.3-7.3l5.8,5.8L-73.8,104.6z"/>
</svg>
