<?xml version="1.0" encoding="utf-8"?>
<!-- Generator: Adobe Illustrator 19.0.0, SVG Export Plug-In . SVG Version: 6.00 Build 0)  -->
<svg version="1.1" id="Laag_1" xmlns="http://www.w3.org/2000/svg" xmlns:xlink="http://www.w3.org/1999/xlink" x="0px" y="0px"
	 viewBox="-76 77 48 48" style="enable-background:new -76 77 48 48;" xml:space="preserve">
<style type="text/css">
	.st0{fill:none;}
	.st1{fill:#00E5FF;}
</style>
<path class="st0" d="M-76,77h48v48h-48V77z"/>
<path class="st1" d="M-42,83h-24c-2.2,0-4,1.8-4,4v28c0,2.2,1.8,4,4,4h28c2.2,0,4-1.8,4-4V91L-42,83z M-52,115c-3.3,0-6-2.7-6-6
	s2.7-6,6-6s6,2.7,6,6S-48.7,115-52,115z M-46,95h-20v-8h20V95z"/>
</svg>
