<?xml version="1.0" encoding="utf-8"?>
<!-- Generator: Adobe Illustrator 19.0.0, SVG Export Plug-In . SVG Version: 6.00 Build 0)  -->
<svg version="1.1" id="Layer_1" xmlns="http://www.w3.org/2000/svg" xmlns:xlink="http://www.w3.org/1999/xlink" x="0px" y="0px"
	 viewBox="-36 37 128 128" style="enable-background:new -36 37 128 128;" xml:space="preserve">
<style type="text/css">
	.st0{fill:#FFC107;}
</style>
<g id="XMLID_1_">
	<path id="XMLID_17_" class="st0" d="M76,133c8.8,0,16,7.2,16,16s-7.2,16-16,16c-8.2,0-14.9-6.1-15.9-14H28.3c-1.1,0-2-0.9-2-2
		v-43.5H-3.5c-1,7.9-7.7,14-15.9,14c-8.8,0-16-7.2-16-16s7.2-16,16-16c8.2,0,14.9,6.1,15.9,14h29.8V53c0-1.1,0.9-2,2-2h31.8
		c1-7.9,7.7-14,15.9-14c8.8,0,16,7.2,16,16s-7.2,16-16,16c-8.2,0-14.9-6.1-15.9-14H30.3v44.4v2.1h1h0.9h27.9c1-7.9,7.7-14,15.9-14
		c8.8,0,16,7.2,16,16s-7.2,16-16,16c-8.2,0-14.9-6.1-15.9-14H35.9h-5.6V147h29.8C61.1,139.1,67.9,133,76,133L76,133z M76,137
		c-6.6,0-12,5.4-12,12s5.4,12,12,12s12-5.4,12-12S82.6,137,76,137L76,137z M76,41c-6.6,0-12,5.4-12,12s5.4,12,12,12s12-5.4,12-12
		S82.6,41,76,41L76,41z M76,91.5c-6.6,0-12,5.4-12,12s5.4,12,12,12s12-5.4,12-12S82.6,91.5,76,91.5L76,91.5z M-19.3,91.5
		c-6.6,0-12,5.4-12,12s5.4,12,12,12s12-5.4,12-12S-12.7,91.5-19.3,91.5z"/>
	<path id="XMLID_12_" class="st0" d="M76,137c6.6,0,12,5.4,12,12s-5.4,12-12,12s-12-5.4-12-12S69.4,137,76,137L76,137z M76,41
		c6.6,0,12,5.4,12,12s-5.4,12-12,12s-12-5.4-12-12S69.4,41,76,41L76,41z M76,91.5c6.6,0,12,5.4,12,12s-5.4,12-12,12s-12-5.4-12-12
		S69.4,91.5,76,91.5L76,91.5z M-19.3,91.5c6.6,0,12,5.4,12,12s-5.4,12-12,12s-12-5.4-12-12S-25.9,91.5-19.3,91.5z"/>
</g>
</svg>
