<?xml version="1.0" encoding="utf-8"?>
<!-- Generator: Adobe Illustrator 19.0.0, SVG Export Plug-In . SVG Version: 6.00 Build 0)  -->
<svg version="1.1" id="Laag_1" xmlns:sketch="http://www.bohemiancoding.com/sketch/ns"
	 xmlns="http://www.w3.org/2000/svg" xmlns:xlink="http://www.w3.org/1999/xlink" x="0px" y="0px" viewBox="-84 85 32 32"
	 style="enable-background:new -84 85 32 32;" xml:space="preserve">
<style type="text/css">
	.st0{fill:#00ABFF;}
</style>
<title></title>
<desc></desc>
<g id="Page-1">
	<g id="icon-148-tag-add">
		<path id="tag-add" class="st0" d="M-75,106v-3h1v3h3v1h-3v3h-1v-3h-3v-1H-75L-75,106z M-78,101l-2-2v-8c0-1.1,0.9-2,2-2h8
			l13.4,13.4c0.8,0.8,0.8,2.1,0,2.8l-7.2,7.2c-0.8,0.8-2,0.8-2.8,0L-69,110c0.6-1,1-2.2,1-3.5c0-3.6-2.9-6.5-6.5-6.5
			C-75.8,100-77,100.4-78,101L-78,101L-78,101z M-74.5,96c0.8,0,1.5-0.7,1.5-1.5s-0.7-1.5-1.5-1.5s-1.5,0.7-1.5,1.5
			S-75.3,96-74.5,96L-74.5,96z M-74.5,112c3,0,5.5-2.5,5.5-5.5s-2.5-5.5-5.5-5.5s-5.5,2.5-5.5,5.5S-77.5,112-74.5,112L-74.5,112z"/>
	</g>
</g>
</svg>
