<?xml version="1.0" encoding="utf-8"?>
<!-- Generator: Adobe Illustrator 19.0.0, SVG Export Plug-In . SVG Version: 6.00 Build 0)  -->
<svg version="1.1" id="Laag_1" xmlns:sketch="http://www.bohemiancoding.com/sketch/ns"
	 xmlns="http://www.w3.org/2000/svg" xmlns:xlink="http://www.w3.org/1999/xlink" x="0px" y="0px" viewBox="-84 85 32 32"
	 style="enable-background:new -84 85 32 32;" xml:space="preserve">
<style type="text/css">
	.st0{fill:#8BC34A;}
</style>
<title></title>
<desc></desc>
<g id="Page-1">
	<g id="icon-147-tags">
		<path id="tags" class="st0" d="M-79,90c-1.1,0-2,0.9-2,2v8l13.4,13.4c0.7,0.7,1.8,0.8,2.6,0.2l-14-14.1L-79,90C-79,90-79,90-79,90
			L-79,90L-79,90z M-68,89h-8c-1.1,0-2,0.9-2,2v8l13.4,13.4c0.8,0.8,2.1,0.8,2.8,0l7.2-7.2c0.8-0.8,0.8-2,0-2.8L-68,89L-68,89z
			 M-72.5,96c0.8,0,1.5-0.7,1.5-1.5s-0.7-1.5-1.5-1.5s-1.5,0.7-1.5,1.5S-73.3,96-72.5,96L-72.5,96z"/>
	</g>
</g>
</svg>
