<?xml version="1.0" encoding="utf-8"?>
<!-- Generator: Adobe Illustrator 19.0.0, SVG Export Plug-In . SVG Version: 6.00 Build 0)  -->
<svg version="1.1" xmlns="http://www.w3.org/2000/svg" xmlns:xlink="http://www.w3.org/1999/xlink" x="0px" y="0px"
	 viewBox="0 0 200 200" style="enable-background:new 0 0 200 200;" xml:space="preserve">
<style type="text/css">
	.st0{display:none;}
	.st1{display:inline;fill:#343434;}
	.st2{display:inline;fill:#FFFFFF;}
	.st3{display:inline;fill:#333333;}
	.st4{display:inline;fill:#FDFDFD;}
	.st5{display:none;fill:none;stroke:#000000;stroke-miterlimit:10;}
	.st6{fill:url(#XMLID_6_);}
	.st7{fill:url(#XMLID_7_);}
</style>
<g id="Laag_1" class="st0">
	<path id="XMLID_28_" class="st1" d="M2.9,190.2C2.9,130.6,3,71,2.6,11.4c0-5.1,4.1-9.2,9.2-9.2c60.8,0.4,121.6,0.2,182.4,0.2
		c2.2,3.4,1.3,7.2,1.3,10.8c0.1,56.4-0.2,112.8,0.3,169.1c0.1,7.3-5.8,13.2-13.1,13.1c-56.4-0.5-112.8-0.2-169.1-0.3
		c1.2,0-3,0.1-6.5-0.2C4.7,194.7,2.9,192.7,2.9,190.2z"/>
	<path id="XMLID_26_" class="st2" d="M91.9,181.8c3.6,1.2,8.5-0.4,11.6,6.8c-13.4-4.2-25.7-3.2-38.9-1.6c8.5-3.1,11.4-8.2,10.9-16.9
		c-0.5-8-1.6-14-9.6-17.7c-3.8-1.7-8.2-3.5-6.3-10.2c3.1-10.9-1.5-15.8-13.1-14c-7.1,1.1-13.9,4.6-21,6.6c-3.4,0.9-7.4,5.7-9.8,2.5
		c-2.1-2.9-1.9-8.7-0.7-12.6C26,89.3,69.8,61.3,106.5,65.6c14,1.6,15.4,0.2,13.2-13.7c-0.5-3.2-1.8-6.2-2.4-9.3
		c-1.4-9.1,2.4-16.9,9.7-20.8c7.8-4.3,15.2,0,20.3,7.2c7.7,11,20.7,16.8,27.8,28.5c1.4,2.7,0,2.9-2.2,2.5
		c-7.9-7.1-16-13.8-25.9-18.1c-7.3-3.1-12.1-1.4-11.4,7.2c2.8,36.5-18.9,57.7-46.6,74.9c-10.7,6.6-11.6,17.5-10.4,27.9
		c1.1,9,11.9,10.3,19.3,13c3.5,1.3,7.5,1,12.2,1c1.4,0,2.9,0,4.5,0.1c-4.9,3.7-6.8,8.8-13.8,3.2c-4.5-3.6-11.2-0.5-14.4,5.8
		c-0.6,0-4.5-3.1-3.3,2.4c0.4,1.7-1-1.8-0.2-1.3c0.7,0.5,1.2,5.6,2.3,5.8C87.1,182.2,89.1,181.7,91.9,181.8z"/>
	<path id="XMLID_25_" class="st3" d="M91.7,182.4c-18.1,2.7-10.8-12.8-14.7-20.3c3.8,1.8,5.9,2.7,7,4.2c0.2,0.2,0.4,0.5,0.5,0.8
		c0.1,0.1,0.2,0.3,0.2,0.5c0.7,1.6,1,3.9,1.4,7.9C82.9,181.8,90.8,179.3,91.7,182.4z"/>
	<path id="XMLID_24_" class="st4" d="M172.7,60.5c0.7-0.8,1.4-1.6,2.2-2.5c8.3,10.1,8.3,10.1,11.8,24.7
		C180.7,73.3,176.7,66.9,172.7,60.5z"/>
	<path id="XMLID_23_" class="st3" d="M71.7,151.7c-6.2-3.3-8.4-6.9-5.9-14.4c2-6.1,4.2-8.4,11.4-7.1
		C75.4,137.3,73.6,144.4,71.7,151.7z"/>
</g>
<g id="Laag_2">
	<path id="XMLID_31_" class="st5" d="M76.3,130.1l-5.5,21.6c0,0,0,0-0.2-0.1c-0.2-0.1-3.9-2-5.2-4.2c-1.4-2.1-1.8-4.1-1-8.2
		c0.9-3.8,2.3-6.3,3.4-7.5c1.1-1.2,2.9-2,4.6-2C75.3,129.8,76.3,130.1,76.3,130.1z"/>
	<g id="XMLID_2_">
		<linearGradient id="XMLID_6_" gradientUnits="userSpaceOnUse" x1="163.6399" y1="251.3348" x2="-84.0543" y2="-52.123">
			<stop  offset="0" style="stop-color:#FFFFFF"/>
			<stop  offset="1" style="stop-color:#000000"/>
		</linearGradient>
		<path id="XMLID_3_" class="st6" d="M68.7,131.7c-1.1,1.2-2.5,3.7-3.4,7.5c-0.9,4.1-0.4,6,1,8.2s5,4.1,5.2,4.2
			c0.2,0.1,0.2,0.1,0.2,0.1l5.5-21.6c0,0-1-0.3-4-0.3C71.6,129.7,69.7,130.5,68.7,131.7z"/>
		<linearGradient id="XMLID_7_" gradientUnits="userSpaceOnUse" x1="199.5833" y1="221.9964" x2="-48.1109" y2="-81.4614">
			<stop  offset="0" style="stop-color:#FFFFFF"/>
			<stop  offset="1" style="stop-color:#000000"/>
		</linearGradient>
		<path id="XMLID_9_" class="st7" d="M188,0H12C5.4,0,0,5.4,0,12v176c0,6.6,5.4,12,12,12h176c6.6,0,12-5.4,12-12V12
			C200,5.4,194.6,0,188,0z M177,67.4c-4.5-7-2.3-5.4-8.5-11.3c-6.2-5.9-7.9-6.4-13.6-10.1c-5.8-3.8-7-4-11.8-5.2
			c-4.8-1.3-6.6,1.6-7.3,4.3c-0.7,3,0.6,9.6,0,14.4c-0.5,4.1-1.2,12.3-3.2,17.4c-1.5,4.1-6.4,14.4-10.8,19.7
			c-4.7,5.7-7.8,8.9-15.2,15.2S89,123.8,87.3,125.1c-0.9,0.7-4.2,3.9-5.4,5.8c-1.2,1.8-2.1,4.4-2.3,5c-0.5,1.3-1.5,4.5-1.2,10.1
			c0.3,5.5,0,7.1,1.5,9.5c1.5,2.4,2.8,3.5,4.2,4.3c1.4,0.8,3.8,2,5.6,2.4c2.4,0.8,7.9,2.6,9.3,3c1.2,0.9,10.8,0.7,11.2,0.7
			c0.3,0,4.5,0.1,4.5,0.1s-3.8,3.3-5.1,4.4c-1.5,1.1-2.7,1.5-4.4,1.2c-1.6-0.3-3.3-1.4-4.4-2.4c-1.1-1-2.3-1.5-5-1.5
			c-2.7,0-5.9,2.7-5.9,2.7c-1.9,1.5-3.6,4.6-3.6,4.6l-0.3-0.1c0,0-0.3-2.4-0.6-4.7c-0.3-2-1.1-3.8-2.8-5c-2.1-1.4-5.7-3-5.7-3
			s1.3,2.7,1.3,5.6c0,1.9,0.4,7.7,1,9.2c0.5,1.5,1.4,3.4,2.8,4.3c1.3,0.9,3.1,1.4,5,1.5c1,0,3.7-0.1,4.7-0.3
			c-0.1-0.4-0.3-0.6-0.3-0.6l0.6,0c0,0,0.9,0.3,1.2,0.3c0.3,0,4.5,0.5,6.2,1.4c2.6,1.3,4,4.8,4.1,5c-0.3-0.1-5-1.5-6.6-1.7
			c-1.6-0.2-9.6-1.8-16.9-1.3c-5.3,0.1-15.4,1.3-15.4,1.3s4.4-1.7,6.1-3.3c1.7-1.6,3.6-3.6,4.3-7c0.6-2.5,0.8-5.5,0.3-10
			c-0.5-4.5-0.8-5.1-2.2-8c-1.4-2.9-2.3-2.8-4.4-4.7c-2.1-1.9-5.5-2.3-7.5-4.2c-2-1.9-1.9-1.8-2-5.2c-0.1-3.4,1.3-2.2,1.3-9.5
			c0-7.3-5.7-7.5-12.3-7c-6.5,0.5-7,1.3-10.7,2.6c-3.7,1.3-7.7,2.4-12,4.2c-4.3,1.8-3,1.9-6.5,3.4c-3.5,1.5-4.8-3.7-4.9-7.1
			c-0.1-3.3,0.8-5.7,1.8-9s7.2-16.8,12.8-22s8-10.8,21.7-19.2S63.4,71.7,78,68.3c14.6-3.4,18.2-3,22.1-3c3.9,0,12.1,1.3,15.4,0.9
			c3.2-0.4,4.4-1.8,5-3.9c0.6-2.1-0.2-7.6-0.8-11.3c-1.5-5.7-2.7-7.8-2.6-12.8c-0.2-4.6,1.4-7.2,2.5-9.3c1.4-2.7,3.2-4.1,5.5-6
			c2.5-1.4,5.1-3.6,10.2-2.7c5.1,0.8,5.8,2.6,7.3,3.7c1.5,1.1,3.9,3.8,4.8,5.2c0.9,1.4,2.3,3.2,5.5,6.4c3.2,3.2,9.1,8,11.7,10.2
			c2.6,2.2,5.5,5.2,7,6.9s7.1,9.5,9.2,13.1c2.2,3.6,3,4.4,4.2,9.9s1.6,7.1,1.6,7.1S181.5,74.4,177,67.4z"/>
	</g>
</g>
</svg>
