<?xml version="1.0" encoding="utf-8"?>
<!-- Generator: Adobe Illustrator 19.0.0, SVG Export Plug-In . SVG Version: 6.00 Build 0)  -->
<svg version="1.1" xmlns="http://www.w3.org/2000/svg" xmlns:xlink="http://www.w3.org/1999/xlink" x="0px" y="0px"
	 viewBox="0 0 200 200" style="enable-background:new 0 0 200 200;" xml:space="preserve">
<style type="text/css">
	.st0{display:none;}
	.st1{display:inline;fill:#343434;}
	.st2{display:inline;fill:#FFFFFF;}
	.st3{display:inline;fill:#333333;}
	.st4{display:inline;fill:#FDFDFD;}
	.st5{fill:#353535;stroke:#000000;stroke-miterlimit:10;}
	.st6{fill:none;stroke:#000000;stroke-miterlimit:10;}
</style>
<g id="Laag_1" class="st0">
	<path id="XMLID_28_" class="st1" d="M2.9,190.2C2.9,130.6,3,71,2.6,11.4c0-5.1,4.1-9.2,9.2-9.2c60.8,0.4,121.6,0.2,182.4,0.2
		c2.2,3.4,1.3,7.2,1.3,10.8c0.1,56.4-0.2,112.8,0.3,169.1c0.1,7.3-5.8,13.2-13.1,13.1c-56.4-0.5-112.8-0.2-169.1-0.3
		c1.2,0-3,0.1-6.5-0.2C4.7,194.7,2.9,192.7,2.9,190.2z"/>
	<path id="XMLID_26_" class="st2" d="M91.9,181.8c3.6,1.2,8.5-0.4,11.6,6.8c-13.4-4.2-25.7-3.2-38.9-1.6c8.5-3.1,11.4-8.2,10.9-16.9
		c-0.5-8-1.6-14-9.6-17.7c-3.8-1.7-8.2-3.5-6.3-10.2c3.1-10.9-1.5-15.8-13.1-14c-7.1,1.1-13.9,4.6-21,6.6c-3.4,0.9-7.4,5.7-9.8,2.5
		c-2.1-2.9-1.9-8.7-0.7-12.6C26,89.3,69.8,61.3,106.5,65.6c14,1.6,15.4,0.2,13.2-13.7c-0.5-3.2-1.8-6.2-2.4-9.3
		c-1.4-9.1,2.4-16.9,9.7-20.8c7.8-4.3,15.2,0,20.3,7.2c7.7,11,20.7,16.8,27.8,28.5c1.4,2.7,0,2.9-2.2,2.5
		c-7.9-7.1-16-13.8-25.9-18.1c-7.3-3.1-12.1-1.4-11.4,7.2c2.8,36.5-18.9,57.7-46.6,74.9c-10.7,6.6-11.6,17.5-10.4,27.9
		c1.1,9,11.9,10.3,19.3,13c3.5,1.3,7.5,1,12.2,1c1.4,0,2.9,0,4.5,0.1c-4.9,3.7-6.8,8.8-13.8,3.2c-4.5-3.6-11.2-0.5-14.4,5.8
		c-0.6,0-4.5-3.1-3.3,2.4c0.4,1.7-1-1.8-0.2-1.3c0.7,0.5,1.2,5.6,2.3,5.8C87.1,182.2,89.1,181.7,91.9,181.8z"/>
	<path id="XMLID_25_" class="st3" d="M91.7,182.4c-18.1,2.7-10.8-12.8-14.7-20.3c3.8,1.8,5.9,2.7,7,4.2c0.2,0.2,0.4,0.5,0.5,0.8
		c0.1,0.1,0.2,0.3,0.2,0.5c0.7,1.6,1,3.9,1.4,7.9C82.9,181.8,90.8,179.3,91.7,182.4z"/>
	<path id="XMLID_24_" class="st4" d="M172.7,60.5c0.7-0.8,1.4-1.6,2.2-2.5c8.3,10.1,8.3,10.1,11.8,24.7
		C180.7,73.3,176.7,66.9,172.7,60.5z"/>
	<path id="XMLID_23_" class="st3" d="M71.7,151.7c-6.2-3.3-8.4-6.9-5.9-14.4c2-6.1,4.2-8.4,11.4-7.1
		C75.4,137.3,73.6,144.4,71.7,151.7z"/>
</g>
<g id="Laag_2">
	<path id="XMLID_4_" class="st5" d="M71.5,151.5c-0.2-0.1-3.9-2.1-5.2-4.2s-1.8-4.1-1-8.2c0.9-3.8,2.3-6.3,3.4-7.5
		c1.1-1.2,2.9-2,4.6-2c3,0,4,0.3,4,0.3l-5.5,21.6C71.7,151.7,71.7,151.7,71.5,151.5z M61.3,149.7c2,1.9,5.4,2.3,7.5,4.2
		s3,1.8,4.4,4.7s1.7,3.4,2.2,8c0.5,4.5,0.3,7.6-0.3,10c-0.7,3.3-2.7,5.3-4.3,7c-1.7,1.6-6.1,3.3-6.1,3.3s10.1-1.2,15.4-1.3
		c7.2-0.5,15.2,1.1,16.8,1.3c1.6,0.2,6.6,1.7,6.6,1.7s-1.5-3.7-4.1-5.1c-1.8-0.9-6-1.4-6.2-1.4c-0.3,0-1.2-0.3-1.2-0.3l-0.6,0
		c0,0,0.2,0.3,0.3,0.6c-1,0.2-3.7,0.3-4.7,0.3c-1.9,0-3.6-0.6-5-1.5c-1.3-0.9-2.2-2.7-2.8-4.3c-0.5-1.5-0.9-7.3-0.9-9.2
		c-0.1-2.9-1.3-5.6-1.3-5.6s3.6,1.5,5.7,3c1.7,1.2,2.5,2.9,2.8,5c0.3,2.3,0.6,4.7,0.6,4.7l0.3,0.1c0,0,1.6-3.1,3.6-4.6
		c0,0,3.2-2.7,5.9-2.7c2.7,0,3.9,0.5,5,1.5s2.8,2.1,4.4,2.4c1.7,0.3,2.9,0,4.4-1.1c1.3-1.2,5.1-4.4,5.1-4.4s-4.1-0.1-4.5-0.1
		c-0.3,0.1-10,0.2-11.2-0.7c-1.4-0.4-7-2.2-9.3-3c-1.8-0.4-4.2-1.6-5.6-2.4s-2.8-1.9-4.2-4.3s-1.2-3.9-1.5-9.5
		c-0.3-5.5,0.8-8.7,1.2-10.1c0.2-0.6,1.1-3.2,2.3-5c1.2-1.9,4.5-5.1,5.4-5.8c1.6-1.2,11.9-7.1,19.3-13.3c7.4-6.2,10.5-9.5,15.2-15.2
		c4.4-5.3,9.2-15.6,10.8-19.7c1.9-5.1,2.7-13.3,3.2-17.4c0.6-4.8-0.7-11.4,0-14.4c0.7-2.7,2.5-5.6,7.3-4.3c4.8,1.3,6,1.5,11.8,5.2
		s7.4,4.2,13.6,10.1s4,4.2,8.5,11.3c4.5,7.1,9.7,15.4,9.7,15.4s-0.3-1.6-1.6-7.1c-1.2-5.5-2.1-6.2-4.2-9.9s-7.8-11.5-9.2-13.1
		s-4.4-4.7-7-6.9c-2.6-2.2-8.5-7-11.7-10.2c-3.2-3.2-4.6-5-5.5-6.4c-0.9-1.4-3.3-4.1-4.8-5.2s-2.2-2.9-7.3-3.7
		c-5.1-0.8-7.8,1.4-10.2,2.7c-2.3,1.9-4.1,3.4-5.5,6c-1.2,2.1-2.7,4.8-2.5,9.3c-0.1,4.9,1.1,7.1,2.6,12.8c0.6,3.7,1.4,9.2,0.8,11.3
		c-0.6,2.1-1.8,3.5-5,3.9c-3.2,0.4-11.5-0.9-15.4-0.9c-3.9,0-7.5-0.4-22.1,3s-13.7,4.1-27.4,12.5s-16.1,14-21.7,19.2
		S17,118.7,16.1,122c-0.9,3.3-1.9,5.7-1.8,9c0.1,3.3,1.3,8.5,4.9,7.1c3.5-1.5,2.2-1.6,6.6-3.4c4.3-1.8,8.3-2.9,12-4.2
		c3.7-1.3,4.1-2.2,10.7-2.6s12.3-0.3,12.3,7c0,7.3-1.4,6.2-1.3,9.5C59.5,147.9,59.3,147.9,61.3,149.7z"/>
	<rect id="XMLID_1_" x="-1.7" class="st6" width="1.7" height="0"/>
</g>
</svg>
